<svg
  viewBox="0 0 24 24"
  width="64"
  height="64"
  xmlns="http://www.w3.org/2000/svg"
>
  <path
    fill="#ffffff"
    d="M12 0.5C5.65 0.5 0.5 5.78 0.5 12.29
       c0 5.22 3.44 9.64 8.21 11.2
       0.6 0.11 0.82-0.27 0.82-0.6
       0-0.3-0.01-1.1-0.02-2.15
       -3.34 0.75-4.04-1.67-4.04-1.67
       -0.55-1.44-1.34-1.82-1.34-1.82
       -1.1-0.78 0.08-0.77 0.08-0.77
       1.22 0.09 1.86 1.3 1.86 1.3
       1.08 1.92 2.83 1.37 3.52 1.05
       0.11-0.8 0.42-1.37 0.76-1.69
       -2.66-0.31-5.46-1.37-5.46-6.11
       0-1.35 0.46-2.46 1.22-3.33
       -0.12-0.31-0.53-1.56 0.12-3.25
       0 0 1-0.33 3.3 1.27
       0.96-0.28 1.98-0.42 3-0.42
       1.02 0 2.04 0.14 3 0.42
       2.3-1.6 3.3-1.27 3.3-1.27
       0.65 1.69 0.24 2.94 0.12 3.25
       0.76 0.87 1.22 1.98 1.22 3.33
       0 4.75-2.8 5.8-5.48 6.1
       0.43 0.38 0.81 1.12 0.81 2.25
       0 1.62-0.02 2.93-0.02 3.33
       0 0.33 0.22 0.72 0.83 0.6
       4.76-1.56 8.2-5.98 8.2-11.2
       C23.5 5.78 18.35 0.5 12 0.5Z"
  />
</svg>