<svg
  xmlns="http://www.w3.org/2000/svg"
  viewBox="0 0 24 24"
  aria-hidden="true"
  style="display: block; margin: auto;"
>
  <defs>
    <linearGradient id="leetcode-box-gradient" x1="0%" y1="0%" x2="0%" y2="100%">
      <stop offset="0%" style="stop-color:#3a3a3a;stop-opacity:1" />
      <stop offset="100%" style="stop-color:#202020;stop-opacity:1" />
    </linearGradient>

    <filter id="leetcode-glow" x="-20%" y="-20%" width="140%" height="140%">
      <feDropShadow dx="0" dy="1" stdDeviation="0.5" flood-color="black" flood-opacity="0.5"/>
    </filter>
  </defs>

  <rect 
    x="0" 
    y="0" 
    width="24" 
    height="24" 
    rx="4.5" 
    ry="4.5" 
    fill="url(#leetcode-box-gradient)" 
  />

  <g transform="translate(4 4) scale(0.65)" filter="url(#leetcode-glow)">
    <path 
      d="M16.102 17.93l-2.697 2.607c-.466.467-1.111.662-1.823.662s-1.357-.195-1.824-.662l-4.332-4.363c-.467-.467-.702-1.15-.702-1.863s.235-1.357.702-1.863l2.151-2.165a.653.653 0 0 1 .927.927l-2.152 2.165c-.21.21-.308.475-.308.773a1.05 1.05 0 0 0 .308.773l4.332 4.363c.21.21.555.21.773 0l2.697-2.607a.653.653 0 0 1 .927.927z" 
      fill="#9ca3af" 
    />
    
    <path 
      d="M8.82 5.62l.93-.93a.653.653 0 0 1 .927 0l2.697 2.607c.21.21.555.21.773 0l4.332-4.363c.21-.21.308-.475.308-.773a1.05 1.05 0 0 0-.308-.773L16.33 3.62a1.05 1.05 0 0 0-.773-.308 1.05 1.05 0 0 0-.773.308l-2.15 2.165a.653.653 0 0 1-.927-.927l2.15-2.165c.467-.467 1.111-.662 1.823-.662s1.357.195 1.824.662l2.15 2.165c.467.467.702 1.15.702 1.863s-.235 1.357-.702 1.863l-4.332 4.363c-.467.467-1.111.662-1.823.662s-1.357-.195-1.824-.662l-2.697-2.607a.653.653 0 0 1 0-.927z" 
      fill="#ffa116" 
    />
  </g>
</svg>