<svg
  xmlns="http://www.w3.org/2000/svg"
  viewBox="0 0 24 24"
  aria-hidden="true"
  style="display: block; margin: auto;"
>
  <defs>
    <linearGradient id="linkedin-box-gradient" x1="0%" y1="0%" x2="0%" y2="100%">
      <stop offset="0%" style="stop-color:#4facfe;stop-opacity:1" />
      <stop offset="100%" style="stop-color:#0072b1;stop-opacity:1" />
    </linearGradient>
    
    <filter id="text-shadow" x="-20%" y="-20%" width="140%" height="140%">
      <feDropShadow dx="0" dy="1" stdDeviation="0.5" flood-color="rgba(0,0,0,0.2)"/>
    </filter>
  </defs>

  <rect 
    x="0" 
    y="0" 
    width="24" 
    height="24" 
    rx="4" 
    ry="4" 
    fill="url(#linkedin-box-gradient)" 
  />

  <path
    d="M4.98 3.5a2.48 2.48 0 1 1 0 4.96 2.48 2.48 0 0 1 0-4.96ZM3 9h4v12H3V9Zm7 0h3.8v1.64h.05c.53-1 1.84-2.06 3.79-2.06 4.05 0 4.8 2.67 4.8 6.14V21h-4v-5.3c0-1.26-.02-2.88-1.75-2.88-1.76 0-2.03 1.37-2.03 2.79V21h-4V9Z"
    fill="#ffffff"
    filter="url(#text-shadow)"
  />
</svg>