<svg
  viewBox="0 0 256 154"
  xmlns="http://www.w3.org/2000/svg"
>
  <path
    d="M128 0
       C 93 0 73 17 64 52
       C 78 34 95 28 116 34
       C 128 38 137 50 147 62
       C 162 82 180 104 224 104
       C 191 104 171 86 160 52
       C 147 18 109 0 128 0 Z"
    fill="#38BDF8"
  />

  <path
    d="M64 104
       C 29 104 9 121 0 154
       C 14 136 31 130 52 136
       C 64 140 73 152 83 164
       C 98 184 116 206 160 206
       C 127 206 107 188 96 154
       C 83 120 45 104 64 104 Z"
    fill="#0EA5E9"
  />
</svg>