<svg width="64" height="64" viewBox="0 0 64 64" xmlns="http://www.w3.org/2000/svg">
  <defs>
    <linearGradient id="waGradient" x1="0%" y1="0%" x2="100%" y2="100%">
      <stop offset="0%" stop-color="#4ade80"/> <stop offset="100%" stop-color="#16a34a"/> </linearGradient>

    <filter id="shadow" x="-50%" y="-50%" width="200%" height="200%">
      <feDropShadow dx="0" dy="2" stdDeviation="1.5" flood-color="#000" flood-opacity="0.2"/>
    </filter>
  </defs>

  <circle cx="32" cy="32" r="28" fill="#4ade80" opacity="0">
    <animate 
      attributeName="r" 
      from="28" 
      to="32" 
      dur="1.5s" 
      repeatCount="indefinite"/>
    <animate 
      attributeName="opacity" 
      values="0.6;0" 
      dur="1.5s" 
      repeatCount="indefinite"/>
  </circle>

  <circle cx="32" cy="32" r="28" fill="url(#waGradient)" filter="url(#shadow)"/>

  <path
    d="M32 16 C23.2 16 16 22.3 16 30 C16 33.1 17.2 36 19.2 38.3 L17.5 45 L24.5 42.8 C26.7 43.6 29.2 44 32 44 C40.8 44 48 37.7 48 30 C48 22.3 40.8 16 32 16 Z"
    fill="#ffffff"
    filter="url(#shadow)"
  />

  <g transform-origin="32 30"> <path
      d="M36.5 32.5 C35.5 32.5 34.5 32.3 33.5 32 C33.2 31.9 32.8 32 32.6 32.2 L31 33.8 C28.5 32.5 26.5 30.5 25.2 28 L26.8 26.4 C27 26.2 27.1 25.8 27 25.5 C26.7 24.5 26.5 23.5 26.5 22.5 C26.5 21.7 25.8 21 25 21 H22.5 C21.7 21 21 21.7 21 22.5 C21 31 28 38 36.5 38 C37.3 38 38 37.3 38 36.5 V34 C38 33.2 37.3 32.5 36.5 32.5 Z"
      fill="#16a34a"
    />
    
    <animateTransform 
      attributeName="transform" 
      type="rotate" 
      values="0; -10; 10; -10; 10; 0; 0; 0" 
      dur="1.5s" 
      repeatCount="indefinite"
    />
  </g>

</svg>